<mxfile host="app.diagrams.net" agent="Mozilla/5.0 (Windows NT 10.0; Win64; x64) AppleWebKit/537.36 (KHTML, like Gecko) Chrome/124.0.0.0 Safari/537.36" version="24.7.6">
  <diagram id="C5RBs43oDa-KdzZeNtuy" name="Page-1">
    <mxGraphModel dx="1687" dy="918" grid="1" gridSize="10" guides="1" tooltips="1" connect="1" arrows="1" fold="1" page="1" pageScale="1" pageWidth="827" pageHeight="1169" math="0" shadow="0">
      <root>
        <mxCell id="WIyWlLk6GJQsqaUBKTNV-0" />
        <mxCell id="WIyWlLk6GJQsqaUBKTNV-1" parent="WIyWlLk6GJQsqaUBKTNV-0" />
        <mxCell id="qmbQsUwb_5-3CyHs6vJM-4" value="" style="edgeStyle=orthogonalEdgeStyle;rounded=0;orthogonalLoop=1;jettySize=auto;html=1;" edge="1" parent="WIyWlLk6GJQsqaUBKTNV-1" source="WIyWlLk6GJQsqaUBKTNV-3" target="qmbQsUwb_5-3CyHs6vJM-1">
          <mxGeometry relative="1" as="geometry" />
        </mxCell>
        <mxCell id="WIyWlLk6GJQsqaUBKTNV-3" value="START" style="rounded=1;whiteSpace=wrap;html=1;fontSize=12;glass=0;strokeWidth=1;shadow=0;" parent="WIyWlLk6GJQsqaUBKTNV-1" vertex="1">
          <mxGeometry x="310" y="10" width="120" height="40" as="geometry" />
        </mxCell>
        <mxCell id="qmbQsUwb_5-3CyHs6vJM-41" value="" style="edgeStyle=orthogonalEdgeStyle;rounded=0;orthogonalLoop=1;jettySize=auto;html=1;" edge="1" parent="WIyWlLk6GJQsqaUBKTNV-1" source="qmbQsUwb_5-3CyHs6vJM-1" target="qmbQsUwb_5-3CyHs6vJM-40">
          <mxGeometry relative="1" as="geometry" />
        </mxCell>
        <mxCell id="qmbQsUwb_5-3CyHs6vJM-1" value="nhập a, b ,c" style="shape=parallelogram;perimeter=parallelogramPerimeter;whiteSpace=wrap;html=1;fixedSize=1;" vertex="1" parent="WIyWlLk6GJQsqaUBKTNV-1">
          <mxGeometry x="310" y="130" width="120" height="60" as="geometry" />
        </mxCell>
        <mxCell id="qmbQsUwb_5-3CyHs6vJM-14" value="" style="edgeStyle=orthogonalEdgeStyle;rounded=0;orthogonalLoop=1;jettySize=auto;html=1;" edge="1" parent="WIyWlLk6GJQsqaUBKTNV-1" source="qmbQsUwb_5-3CyHs6vJM-10" target="qmbQsUwb_5-3CyHs6vJM-13">
          <mxGeometry relative="1" as="geometry" />
        </mxCell>
        <mxCell id="qmbQsUwb_5-3CyHs6vJM-22" value="" style="edgeStyle=orthogonalEdgeStyle;rounded=0;orthogonalLoop=1;jettySize=auto;html=1;" edge="1" parent="WIyWlLk6GJQsqaUBKTNV-1" source="qmbQsUwb_5-3CyHs6vJM-10" target="qmbQsUwb_5-3CyHs6vJM-21">
          <mxGeometry relative="1" as="geometry" />
        </mxCell>
        <mxCell id="qmbQsUwb_5-3CyHs6vJM-10" value="Delta = b&lt;sup&gt;2&lt;/sup&gt;-4ac" style="rhombus;whiteSpace=wrap;html=1;" vertex="1" parent="WIyWlLk6GJQsqaUBKTNV-1">
          <mxGeometry x="480" y="330" width="110" height="80" as="geometry" />
        </mxCell>
        <mxCell id="qmbQsUwb_5-3CyHs6vJM-18" value="" style="edgeStyle=orthogonalEdgeStyle;rounded=0;orthogonalLoop=1;jettySize=auto;html=1;entryX=0.5;entryY=0;entryDx=0;entryDy=0;" edge="1" parent="WIyWlLk6GJQsqaUBKTNV-1" source="qmbQsUwb_5-3CyHs6vJM-13" target="qmbQsUwb_5-3CyHs6vJM-19">
          <mxGeometry relative="1" as="geometry">
            <mxPoint x="370" y="480" as="targetPoint" />
          </mxGeometry>
        </mxCell>
        <mxCell id="qmbQsUwb_5-3CyHs6vJM-13" value="Delta &amp;lt; 0" style="whiteSpace=wrap;html=1;" vertex="1" parent="WIyWlLk6GJQsqaUBKTNV-1">
          <mxGeometry x="310" y="340" width="120" height="60" as="geometry" />
        </mxCell>
        <mxCell id="qmbQsUwb_5-3CyHs6vJM-33" style="edgeStyle=orthogonalEdgeStyle;rounded=0;orthogonalLoop=1;jettySize=auto;html=1;entryX=0;entryY=0.5;entryDx=0;entryDy=0;" edge="1" parent="WIyWlLk6GJQsqaUBKTNV-1" source="qmbQsUwb_5-3CyHs6vJM-19" target="qmbQsUwb_5-3CyHs6vJM-31">
          <mxGeometry relative="1" as="geometry">
            <Array as="points">
              <mxPoint x="370" y="880" />
            </Array>
          </mxGeometry>
        </mxCell>
        <mxCell id="qmbQsUwb_5-3CyHs6vJM-19" value="PT vô nghiệm" style="shape=parallelogram;perimeter=parallelogramPerimeter;whiteSpace=wrap;html=1;fixedSize=1;" vertex="1" parent="WIyWlLk6GJQsqaUBKTNV-1">
          <mxGeometry x="310" y="600" width="120" height="60" as="geometry" />
        </mxCell>
        <mxCell id="qmbQsUwb_5-3CyHs6vJM-28" value="" style="edgeStyle=orthogonalEdgeStyle;rounded=0;orthogonalLoop=1;jettySize=auto;html=1;" edge="1" parent="WIyWlLk6GJQsqaUBKTNV-1" source="qmbQsUwb_5-3CyHs6vJM-21" target="qmbQsUwb_5-3CyHs6vJM-27">
          <mxGeometry relative="1" as="geometry" />
        </mxCell>
        <mxCell id="qmbQsUwb_5-3CyHs6vJM-21" value="&lt;div style=&quot;text-align: left;&quot;&gt;&lt;span style=&quot;background-color: initial;&quot;&gt;Delta ≥&amp;nbsp;&lt;/span&gt;&lt;span style=&quot;background-color: initial;&quot;&gt;0&lt;/span&gt;&lt;/div&gt;" style="rhombus;whiteSpace=wrap;html=1;" vertex="1" parent="WIyWlLk6GJQsqaUBKTNV-1">
          <mxGeometry x="480" y="450" width="110" height="80" as="geometry" />
        </mxCell>
        <mxCell id="qmbQsUwb_5-3CyHs6vJM-23" value="" style="endArrow=classic;html=1;rounded=0;exitX=1;exitY=0.5;exitDx=0;exitDy=0;" edge="1" parent="WIyWlLk6GJQsqaUBKTNV-1" source="qmbQsUwb_5-3CyHs6vJM-21" target="qmbQsUwb_5-3CyHs6vJM-24">
          <mxGeometry width="50" height="50" relative="1" as="geometry">
            <mxPoint x="540" y="510" as="sourcePoint" />
            <mxPoint x="630" y="490" as="targetPoint" />
          </mxGeometry>
        </mxCell>
        <mxCell id="qmbQsUwb_5-3CyHs6vJM-26" value="" style="edgeStyle=orthogonalEdgeStyle;rounded=0;orthogonalLoop=1;jettySize=auto;html=1;" edge="1" parent="WIyWlLk6GJQsqaUBKTNV-1" source="qmbQsUwb_5-3CyHs6vJM-24">
          <mxGeometry relative="1" as="geometry">
            <mxPoint x="732.0588235294117" y="600" as="targetPoint" />
          </mxGeometry>
        </mxCell>
        <mxCell id="qmbQsUwb_5-3CyHs6vJM-24" value="&lt;img style=&quot;margin: 0px auto; padding: 0px; border: 0px solid rgb(204, 204, 204); font-variant-numeric: inherit; font-variant-east-asian: inherit; font-variant-alternates: inherit; font-variant-position: inherit; font-stretch: inherit; font-size: 16px; line-height: inherit; font-family: Arial, sans-serif; font-optical-sizing: inherit; font-kerning: inherit; font-feature-settings: inherit; font-variation-settings: inherit; vertical-align: middle; box-shadow: rgb(238, 238, 238) 0px 0px 1px; border-radius: 3px; max-width: 100%; height: 41px; color: rgba(0, 0, 0, 0.87); text-align: left; background-color: rgb(255, 255, 255); width: 128px;&quot; data-was-processed=&quot;true&quot; data-i=&quot;0&quot; data-src=&quot;https://tex.vdoc.vn?tex=x_%7B1%7D%20%3Dx_%7B2%7D%20%3D%20-%20%5Cfrac%7Bb%7D%7B2a%7D&quot; class=&quot;lazy loaded&quot; data-latex=&quot;x_{1} =x_{2} = - \frac{b}{2a}&quot; height=&quot;41&quot; width=&quot;128&quot; alt=&quot;x_{1} =x_{2} = - \frac{b}{2a}&quot; src=&quot;https://tex.vdoc.vn/?tex=x_%7B1%7D%20%3Dx_%7B2%7D%20%3D%20-%20%5Cfrac%7Bb%7D%7B2a%7D&quot;&gt;" style="rounded=0;whiteSpace=wrap;html=1;" vertex="1" parent="WIyWlLk6GJQsqaUBKTNV-1">
          <mxGeometry x="664" y="465" width="136" height="50" as="geometry" />
        </mxCell>
        <mxCell id="qmbQsUwb_5-3CyHs6vJM-38" style="edgeStyle=orthogonalEdgeStyle;rounded=0;orthogonalLoop=1;jettySize=auto;html=1;entryX=1;entryY=0.5;entryDx=0;entryDy=0;exitX=0.5;exitY=1;exitDx=0;exitDy=0;" edge="1" parent="WIyWlLk6GJQsqaUBKTNV-1" source="qmbQsUwb_5-3CyHs6vJM-25" target="qmbQsUwb_5-3CyHs6vJM-31">
          <mxGeometry relative="1" as="geometry">
            <mxPoint x="732" y="660" as="sourcePoint" />
          </mxGeometry>
        </mxCell>
        <mxCell id="qmbQsUwb_5-3CyHs6vJM-25" value="PT có nghiệm kép x&lt;sub&gt;1&amp;nbsp;&lt;/sub&gt;= x&lt;sub&gt;2&lt;/sub&gt;" style="shape=parallelogram;perimeter=parallelogramPerimeter;whiteSpace=wrap;html=1;fixedSize=1;rounded=0;" vertex="1" parent="WIyWlLk6GJQsqaUBKTNV-1">
          <mxGeometry x="648.75" y="540" width="166.5" height="60" as="geometry" />
        </mxCell>
        <mxCell id="qmbQsUwb_5-3CyHs6vJM-30" value="" style="edgeStyle=orthogonalEdgeStyle;rounded=0;orthogonalLoop=1;jettySize=auto;html=1;" edge="1" parent="WIyWlLk6GJQsqaUBKTNV-1" source="qmbQsUwb_5-3CyHs6vJM-27" target="qmbQsUwb_5-3CyHs6vJM-29">
          <mxGeometry relative="1" as="geometry" />
        </mxCell>
        <mxCell id="qmbQsUwb_5-3CyHs6vJM-27" value="&lt;img style=&quot;margin: 0px auto; padding: 0px; border: 0px solid rgb(204, 204, 204); font-variant-numeric: inherit; font-variant-east-asian: inherit; font-variant-alternates: inherit; font-variant-position: inherit; font-stretch: inherit; font-size: 16px; line-height: inherit; font-family: Arial, sans-serif; font-optical-sizing: inherit; font-kerning: inherit; font-feature-settings: inherit; font-variation-settings: inherit; vertical-align: middle; box-shadow: rgb(238, 238, 238) 0px 0px 1px; border-radius: 3px; max-width: 100%; height: 46px; color: rgba(0, 0, 0, 0.87); text-align: start; background-color: rgb(255, 255, 255); width: 128px;&quot; data-was-processed=&quot;true&quot; data-i=&quot;1&quot; data-src=&quot;https://tex.vdoc.vn?tex=x_%7B1%7D%20%3D%5Cfrac%7B-b%2B%5Csqrt%7B%5Ctriangle%20%7D%20%7D%7B2a%7D&quot; class=&quot;lazy loaded&quot; data-latex=&quot;x_{1} =\frac{-b+\sqrt{\triangle } }{2a}&quot; height=&quot;46&quot; width=&quot;128&quot; alt=&quot;x_{1} =\frac{-b+\sqrt{\triangle } }{2a}&quot; src=&quot;https://tex.vdoc.vn/?tex=x_%7B1%7D%20%3D%5Cfrac%7B-b%2B%5Csqrt%7B%5Ctriangle%20%7D%20%7D%7B2a%7D&quot;&gt;&lt;span style=&quot;color: rgba(0, 0, 0, 0.87); font-family: Arial, sans-serif; font-size: 16px; text-align: start; background-color: rgb(255, 255, 255);&quot;&gt;&amp;nbsp;&lt;/span&gt;&lt;span style=&quot;color: rgba(0, 0, 0, 0.87); font-family: Arial, sans-serif; font-size: 16px; text-align: start; background-color: rgb(255, 255, 255);&quot;&gt;&amp;nbsp;&lt;/span&gt;&lt;img style=&quot;margin: 0px auto; padding: 0px; border: 0px solid rgb(204, 204, 204); font-variant-numeric: inherit; font-variant-east-asian: inherit; font-variant-alternates: inherit; font-variant-position: inherit; font-stretch: inherit; font-size: 16px; line-height: inherit; font-family: Arial, sans-serif; font-optical-sizing: inherit; font-kerning: inherit; font-feature-settings: inherit; font-variation-settings: inherit; vertical-align: middle; box-shadow: rgb(238, 238, 238) 0px 0px 1px; border-radius: 3px; max-width: 100%; height: 46px; color: rgba(0, 0, 0, 0.87); text-align: start; background-color: rgb(255, 255, 255); width: 128px;&quot; data-was-processed=&quot;true&quot; data-i=&quot;2&quot; data-src=&quot;https://tex.vdoc.vn?tex=x_%7B2%7D%20%3D%5Cfrac%7B-b-%5Csqrt%7B%5Ctriangle%20%7D%20%7D%7B2a%7D&quot; class=&quot;lazy loaded&quot; data-latex=&quot;x_{2} =\frac{-b-\sqrt{\triangle } }{2a}&quot; height=&quot;46&quot; width=&quot;128&quot; alt=&quot;x_{2} =\frac{-b-\sqrt{\triangle } }{2a}&quot; src=&quot;https://tex.vdoc.vn/?tex=x_%7B2%7D%20%3D%5Cfrac%7B-b-%5Csqrt%7B%5Ctriangle%20%7D%20%7D%7B2a%7D&quot;&gt;" style="whiteSpace=wrap;html=1;" vertex="1" parent="WIyWlLk6GJQsqaUBKTNV-1">
          <mxGeometry x="460" y="600" width="150" height="120" as="geometry" />
        </mxCell>
        <mxCell id="qmbQsUwb_5-3CyHs6vJM-32" value="" style="edgeStyle=orthogonalEdgeStyle;rounded=0;orthogonalLoop=1;jettySize=auto;html=1;" edge="1" parent="WIyWlLk6GJQsqaUBKTNV-1" source="qmbQsUwb_5-3CyHs6vJM-29" target="qmbQsUwb_5-3CyHs6vJM-31">
          <mxGeometry relative="1" as="geometry" />
        </mxCell>
        <mxCell id="qmbQsUwb_5-3CyHs6vJM-29" value="PT có 2 nghiệm x&lt;sub&gt;1&lt;/sub&gt; và x&lt;sub&gt;2&lt;/sub&gt;" style="shape=parallelogram;perimeter=parallelogramPerimeter;whiteSpace=wrap;html=1;fixedSize=1;" vertex="1" parent="WIyWlLk6GJQsqaUBKTNV-1">
          <mxGeometry x="440" y="755" width="190" height="60" as="geometry" />
        </mxCell>
        <mxCell id="qmbQsUwb_5-3CyHs6vJM-31" value="END" style="rounded=1;whiteSpace=wrap;html=1;" vertex="1" parent="WIyWlLk6GJQsqaUBKTNV-1">
          <mxGeometry x="475" y="850" width="120" height="60" as="geometry" />
        </mxCell>
        <mxCell id="qmbQsUwb_5-3CyHs6vJM-36" value="Delta = 0" style="text;html=1;align=center;verticalAlign=middle;whiteSpace=wrap;rounded=0;" vertex="1" parent="WIyWlLk6GJQsqaUBKTNV-1">
          <mxGeometry x="590" y="460" width="60" height="30" as="geometry" />
        </mxCell>
        <mxCell id="qmbQsUwb_5-3CyHs6vJM-37" value="Delta &amp;gt; 0" style="text;html=1;align=center;verticalAlign=middle;whiteSpace=wrap;rounded=0;" vertex="1" parent="WIyWlLk6GJQsqaUBKTNV-1">
          <mxGeometry x="535" y="530" width="60" height="30" as="geometry" />
        </mxCell>
        <mxCell id="qmbQsUwb_5-3CyHs6vJM-42" style="edgeStyle=orthogonalEdgeStyle;rounded=0;orthogonalLoop=1;jettySize=auto;html=1;entryX=0.5;entryY=0;entryDx=0;entryDy=0;" edge="1" parent="WIyWlLk6GJQsqaUBKTNV-1" source="qmbQsUwb_5-3CyHs6vJM-40" target="qmbQsUwb_5-3CyHs6vJM-10">
          <mxGeometry relative="1" as="geometry" />
        </mxCell>
        <mxCell id="qmbQsUwb_5-3CyHs6vJM-46" value="" style="edgeStyle=orthogonalEdgeStyle;rounded=0;orthogonalLoop=1;jettySize=auto;html=1;" edge="1" parent="WIyWlLk6GJQsqaUBKTNV-1" source="qmbQsUwb_5-3CyHs6vJM-40" target="qmbQsUwb_5-3CyHs6vJM-45">
          <mxGeometry relative="1" as="geometry" />
        </mxCell>
        <mxCell id="qmbQsUwb_5-3CyHs6vJM-40" value="a=0" style="rhombus;whiteSpace=wrap;html=1;" vertex="1" parent="WIyWlLk6GJQsqaUBKTNV-1">
          <mxGeometry x="330" y="220" width="80" height="80" as="geometry" />
        </mxCell>
        <mxCell id="qmbQsUwb_5-3CyHs6vJM-43" value="No" style="text;html=1;align=center;verticalAlign=middle;whiteSpace=wrap;rounded=0;" vertex="1" parent="WIyWlLk6GJQsqaUBKTNV-1">
          <mxGeometry x="410" y="230" width="40" height="30" as="geometry" />
        </mxCell>
        <mxCell id="qmbQsUwb_5-3CyHs6vJM-50" value="" style="edgeStyle=orthogonalEdgeStyle;rounded=0;orthogonalLoop=1;jettySize=auto;html=1;" edge="1" parent="WIyWlLk6GJQsqaUBKTNV-1" source="qmbQsUwb_5-3CyHs6vJM-45" target="qmbQsUwb_5-3CyHs6vJM-49">
          <mxGeometry relative="1" as="geometry" />
        </mxCell>
        <mxCell id="qmbQsUwb_5-3CyHs6vJM-45" value="b=0" style="rhombus;whiteSpace=wrap;html=1;" vertex="1" parent="WIyWlLk6GJQsqaUBKTNV-1">
          <mxGeometry x="170" y="220" width="80" height="80" as="geometry" />
        </mxCell>
        <mxCell id="qmbQsUwb_5-3CyHs6vJM-48" value="Yes" style="text;html=1;align=center;verticalAlign=middle;whiteSpace=wrap;rounded=0;" vertex="1" parent="WIyWlLk6GJQsqaUBKTNV-1">
          <mxGeometry x="290" y="230" width="40" height="30" as="geometry" />
        </mxCell>
        <mxCell id="qmbQsUwb_5-3CyHs6vJM-53" value="" style="edgeStyle=orthogonalEdgeStyle;rounded=0;orthogonalLoop=1;jettySize=auto;html=1;" edge="1" parent="WIyWlLk6GJQsqaUBKTNV-1" source="qmbQsUwb_5-3CyHs6vJM-49" target="qmbQsUwb_5-3CyHs6vJM-52">
          <mxGeometry relative="1" as="geometry" />
        </mxCell>
        <mxCell id="qmbQsUwb_5-3CyHs6vJM-49" value="x = c/a" style="whiteSpace=wrap;html=1;" vertex="1" parent="WIyWlLk6GJQsqaUBKTNV-1">
          <mxGeometry x="150" y="340" width="120" height="60" as="geometry" />
        </mxCell>
        <mxCell id="qmbQsUwb_5-3CyHs6vJM-54" style="edgeStyle=orthogonalEdgeStyle;rounded=0;orthogonalLoop=1;jettySize=auto;html=1;entryX=0;entryY=0.75;entryDx=0;entryDy=0;" edge="1" parent="WIyWlLk6GJQsqaUBKTNV-1" source="qmbQsUwb_5-3CyHs6vJM-52" target="qmbQsUwb_5-3CyHs6vJM-31">
          <mxGeometry relative="1" as="geometry">
            <Array as="points">
              <mxPoint x="210" y="895" />
            </Array>
          </mxGeometry>
        </mxCell>
        <mxCell id="qmbQsUwb_5-3CyHs6vJM-52" value="PT có 1 nghiệm x" style="shape=parallelogram;perimeter=parallelogramPerimeter;whiteSpace=wrap;html=1;fixedSize=1;" vertex="1" parent="WIyWlLk6GJQsqaUBKTNV-1">
          <mxGeometry x="140" y="480" width="140" height="60" as="geometry" />
        </mxCell>
        <mxCell id="qmbQsUwb_5-3CyHs6vJM-56" value="No" style="text;html=1;align=center;verticalAlign=middle;whiteSpace=wrap;rounded=0;" vertex="1" parent="WIyWlLk6GJQsqaUBKTNV-1">
          <mxGeometry x="210" y="300" width="40" height="30" as="geometry" />
        </mxCell>
        <mxCell id="qmbQsUwb_5-3CyHs6vJM-57" value="" style="endArrow=classic;html=1;rounded=0;exitX=0;exitY=0.5;exitDx=0;exitDy=0;entryX=0.5;entryY=0;entryDx=0;entryDy=0;" edge="1" parent="WIyWlLk6GJQsqaUBKTNV-1" source="qmbQsUwb_5-3CyHs6vJM-45" target="qmbQsUwb_5-3CyHs6vJM-59">
          <mxGeometry width="50" height="50" relative="1" as="geometry">
            <mxPoint x="170" y="370" as="sourcePoint" />
            <mxPoint x="80" y="260" as="targetPoint" />
            <Array as="points">
              <mxPoint x="80" y="260" />
            </Array>
          </mxGeometry>
        </mxCell>
        <mxCell id="qmbQsUwb_5-3CyHs6vJM-58" value="Yes" style="text;html=1;align=center;verticalAlign=middle;whiteSpace=wrap;rounded=0;" vertex="1" parent="WIyWlLk6GJQsqaUBKTNV-1">
          <mxGeometry x="120" y="230" width="60" height="30" as="geometry" />
        </mxCell>
        <mxCell id="qmbQsUwb_5-3CyHs6vJM-61" value="" style="edgeStyle=orthogonalEdgeStyle;rounded=0;orthogonalLoop=1;jettySize=auto;html=1;" edge="1" parent="WIyWlLk6GJQsqaUBKTNV-1" source="qmbQsUwb_5-3CyHs6vJM-59" target="qmbQsUwb_5-3CyHs6vJM-60">
          <mxGeometry relative="1" as="geometry" />
        </mxCell>
        <mxCell id="qmbQsUwb_5-3CyHs6vJM-59" value="c=0" style="rhombus;whiteSpace=wrap;html=1;" vertex="1" parent="WIyWlLk6GJQsqaUBKTNV-1">
          <mxGeometry x="40" y="400" width="80" height="80" as="geometry" />
        </mxCell>
        <mxCell id="qmbQsUwb_5-3CyHs6vJM-62" style="edgeStyle=orthogonalEdgeStyle;rounded=0;orthogonalLoop=1;jettySize=auto;html=1;entryX=0.5;entryY=1;entryDx=0;entryDy=0;" edge="1" parent="WIyWlLk6GJQsqaUBKTNV-1" source="qmbQsUwb_5-3CyHs6vJM-60" target="qmbQsUwb_5-3CyHs6vJM-31">
          <mxGeometry relative="1" as="geometry">
            <Array as="points">
              <mxPoint x="80" y="930" />
              <mxPoint x="535" y="930" />
            </Array>
          </mxGeometry>
        </mxCell>
        <mxCell id="qmbQsUwb_5-3CyHs6vJM-60" value="PT có vô số nghiệm" style="shape=parallelogram;perimeter=parallelogramPerimeter;whiteSpace=wrap;html=1;fixedSize=1;" vertex="1" parent="WIyWlLk6GJQsqaUBKTNV-1">
          <mxGeometry y="600" width="160" height="60" as="geometry" />
        </mxCell>
        <mxCell id="qmbQsUwb_5-3CyHs6vJM-63" value="" style="endArrow=classic;html=1;rounded=0;exitX=1;exitY=0.5;exitDx=0;exitDy=0;entryX=0.25;entryY=0;entryDx=0;entryDy=0;" edge="1" parent="WIyWlLk6GJQsqaUBKTNV-1" source="qmbQsUwb_5-3CyHs6vJM-59" target="qmbQsUwb_5-3CyHs6vJM-19">
          <mxGeometry width="50" height="50" relative="1" as="geometry">
            <mxPoint x="170" y="560" as="sourcePoint" />
            <mxPoint x="220" y="510" as="targetPoint" />
            <Array as="points">
              <mxPoint x="340" y="440" />
            </Array>
          </mxGeometry>
        </mxCell>
        <mxCell id="qmbQsUwb_5-3CyHs6vJM-64" value="No" style="text;html=1;align=center;verticalAlign=middle;whiteSpace=wrap;rounded=0;" vertex="1" parent="WIyWlLk6GJQsqaUBKTNV-1">
          <mxGeometry x="120" y="410" width="40" height="30" as="geometry" />
        </mxCell>
        <mxCell id="qmbQsUwb_5-3CyHs6vJM-65" value="Yes" style="text;html=1;align=center;verticalAlign=middle;whiteSpace=wrap;rounded=0;" vertex="1" parent="WIyWlLk6GJQsqaUBKTNV-1">
          <mxGeometry x="40" y="480" width="40" height="30" as="geometry" />
        </mxCell>
      </root>
    </mxGraphModel>
  </diagram>
</mxfile>
